<svg width="192" height="192" viewBox="0 0 192 192" fill="none" xmlns="http://www.w3.org/2000/svg">
  <rect width="192" height="192" rx="24" fill="#6aaa64"/>
  <rect x="24" y="48" width="32" height="32" rx="4" fill="white"/>
  <rect x="64" y="48" width="32" height="32" rx="4" fill="white"/>
  <rect x="104" y="48" width="32" height="32" rx="4" fill="white"/>
  <rect x="144" y="48" width="32" height="32" rx="4" fill="white"/>
  
  <rect x="24" y="88" width="32" height="32" rx="4" fill="#c9b458"/>
  <rect x="64" y="88" width="32" height="32" rx="4" fill="white"/>
  <rect x="104" y="88" width="32" height="32" rx="4" fill="#6aaa64"/>
  <rect x="144" y="88" width="32" height="32" rx="4" fill="white"/>
  
  <rect x="24" y="128" width="32" height="32" rx="4" fill="#787c7e"/>
  <rect x="64" y="128" width="32" height="32" rx="4" fill="#787c7e"/>
  <rect x="104" y="128" width="32" height="32" rx="4" fill="#6aaa64"/>
  <rect x="144" y="128" width="32" height="32" rx="4" fill="#6aaa64"/>
  
  <text x="40" y="70" fill="#333" font-family="Arial, sans-serif" font-size="18" font-weight="bold" text-anchor="middle">W</text>
  <text x="80" y="70" fill="#333" font-family="Arial, sans-serif" font-size="18" font-weight="bold" text-anchor="middle">O</text>
  <text x="120" y="70" fill="#333" font-family="Arial, sans-serif" font-size="18" font-weight="bold" text-anchor="middle">R</text>
  <text x="160" y="70" fill="#333" font-family="Arial, sans-serif" font-size="18" font-weight="bold" text-anchor="middle">D</text>
  
  <text x="40" y="110" fill="white" font-family="Arial, sans-serif" font-size="18" font-weight="bold" text-anchor="middle">L</text>
  <text x="80" y="110" fill="#333" font-family="Arial, sans-serif" font-size="18" font-weight="bold" text-anchor="middle">E</text>
  <text x="120" y="110" fill="white" font-family="Arial, sans-serif" font-size="18" font-weight="bold" text-anchor="middle">S</text>
  <text x="160" y="110" fill="#333" font-family="Arial, sans-serif" font-size="18" font-weight="bold" text-anchor="middle">S</text>
  
  <text x="40" y="150" fill="white" font-family="Arial, sans-serif" font-size="18" font-weight="bold" text-anchor="middle">P</text>
  <text x="80" y="150" fill="white" font-family="Arial, sans-serif" font-size="18" font-weight="bold" text-anchor="middle">W</text>
  <text x="120" y="150" fill="white" font-family="Arial, sans-serif" font-size="18" font-weight="bold" text-anchor="middle">A</text>
  <text x="160" y="150" fill="white" font-family="Arial, sans-serif" font-size="18" font-weight="bold" text-anchor="middle">!</text>
</svg>
